<svg width="512" height="512" viewBox="0 0 512 512" fill="none" xmlns="http://www.w3.org/2000/svg">
<g clip-path="url(#clip0_434_3)">
<circle cx="256" cy="256" r="256" fill="#18181B"/>
<path d="M256 256V0C323.895 0 389.01 26.9714 437.019 74.9807C485.029 122.99 512 188.105 512 256H256Z" fill="#F43F5E"/>
<path d="M133.367 189.703V169.43H244.578V185.836C233.641 197.477 222.781 212.945 212 232.242C201.297 251.539 193.016 271.383 187.156 291.773C182.938 306.148 180.242 321.891 179.07 339H157.391C157.625 325.484 160.281 309.156 165.359 290.016C170.438 270.875 177.703 252.438 187.156 234.703C196.688 216.891 206.805 201.891 217.508 189.703H133.367ZM265.555 294L287.703 292.125C289.344 302.906 293.133 311.031 299.07 316.5C305.086 321.891 312.312 324.586 320.75 324.586C330.906 324.586 339.5 320.758 346.531 313.102C353.562 305.445 357.078 295.289 357.078 282.633C357.078 270.602 353.68 261.109 346.883 254.156C340.164 247.203 331.336 243.727 320.398 243.727C313.602 243.727 307.469 245.289 302 248.414C296.531 251.461 292.234 255.445 289.109 260.367L269.305 257.789L285.945 169.547H371.375V189.703H302.82L293.562 235.875C303.875 228.688 314.695 225.094 326.023 225.094C341.023 225.094 353.68 230.289 363.992 240.68C374.305 251.07 379.461 264.43 379.461 280.758C379.461 296.305 374.93 309.742 365.867 321.07C354.852 334.977 339.812 341.93 320.75 341.93C305.125 341.93 292.352 337.555 282.43 328.805C272.586 320.055 266.961 308.453 265.555 294Z" fill="white"/>
</g>
<defs>
<clipPath id="clip0_434_3">
<rect width="512" height="512" fill="white"/>
</clipPath>
</defs>
</svg>
